<svg xmlns="http://www.w3.org/2000/svg" width="201" height="58" viewBox="0 0 201 58">
  <g fill="#4B4E4F" fill-rule="evenodd" transform="translate(0 -2)">
    <g fill-rule="nonzero" transform="rotate(22 81.336 424.634)">
      <path d="M37.771,0.2295 L8.09,0.2295 L5.661,0.2295 C5.626,0.2295 5.59,0.2375 5.555,0.2405 C5.532,0.2385 5.509,0.2315 5.485,0.2315 C5.464,0.2305 5.376,0.2285 5.355,0.2285 C3.119,0.2285 0.864,1.4105 0.864,4.0505 L0.864,20.2755 L0.864,28.0975 L0.864,44.3235 C0.864,46.9635 3.119,48.1455 5.355,48.1455 C5.375,48.1455 5.463,48.1445 5.485,48.1435 C5.508,48.1435 5.53,48.1365 5.554,48.1345 C5.589,48.1365 5.624,48.1455 5.661,48.1455 L8.09,48.1455 L37.772,48.1455 C38.732,48.1455 39.507,47.3685 39.507,46.4095 L39.507,1.9645 C39.507,1.0055 38.731,0.2295 37.771,0.2295 Z M36.036,44.6725 L9.825,44.6725 L9.825,3.6995 L36.036,3.6995 L36.036,44.6725 L36.036,44.6725 Z"/>
      <path d="M17.475 16.6144765L22.895 16.6144765C23.472 16.6144765 23.937 15.9845033 23.937 15.2058241 23.937 14.4284967 23.472 13.7985235 22.895 13.7985235L17.475 13.7985235C16.9 13.7985235 16.434 14.4284967 16.434 15.2058241 16.434 15.9831515 16.9 16.6144765 17.475 16.6144765zM17.475 24.7528522L31.537 24.7528522C32.112 24.7528522 32.578 24.0337936 32.578 23.145 32.578 22.2577495 32.112 21.5371478 31.537 21.5371478L17.475 21.5371478C16.9 21.5371478 16.434 22.2577495 16.434 23.145 16.434 24.0337936 16.9 24.7528522 17.475 24.7528522zM17.475 32.4668429L31.537 32.4668429C32.112 32.4668429 32.578 31.8487864 32.578 31.0861632 32.578 30.3222136 32.112 29.7041571 31.537 29.7041571L17.475 29.7041571C16.9 29.7041571 16.434 30.3222136 16.434 31.0861632 16.434 31.8487864 16.9 32.4668429 17.475 32.4668429z"/>
    </g>
    <path d="M28.5211502,23.9711325 C27.2767068,17.624471 21.552267,12.8955859 14.8322725,12.8955859 C7.11672319,12.8955859 0.894506035,19.2422474 0.894506035,26.9577967 L0.894506035,47.1177803 C0.894506035,48.8600011 2.26339381,50.2288889 4.00561461,50.2288889 C5.74783542,50.2288889 7.11672319,48.8600011 7.11672319,47.1177803 L7.11672319,26.9577967 C7.11672319,22.6022447 10.6011648,19.1178031 14.8322725,19.1178031 C19.1878245,19.1178031 22.6722661,22.6022447 22.6722661,26.9577967 L22.6722661,47.1177803 C22.6722661,48.8600011 24.0411539,50.2288889 25.7833747,50.2288889 C27.5255955,50.2288889 28.8944832,48.8600011 28.8944832,47.1177803 L28.8944832,25.3400203 C28.8944832,24.8422429 28.7700389,24.4689099 28.5211502,23.9711325 Z M48.9300502,12.8955859 C56.6455995,12.8955859 62.992261,19.2422474 62.992261,26.9577967 L62.992261,36.2911225 C62.992261,44.0066717 56.6455995,50.2288889 48.9300502,50.2288889 C41.214501,50.2288889 34.9922838,44.0066717 34.9922838,36.2911225 L34.9922838,26.9577967 C34.9922838,19.2422474 41.214501,12.8955859 48.9300502,12.8955859 Z M56.7700439,36.2911225 L56.7700439,26.9577967 C56.7700439,22.6022447 53.2856023,19.1178031 48.9300502,19.1178031 C44.6989426,19.1178031 41.214501,22.6022447 41.214501,26.9577967 L41.214501,36.2911225 C41.214501,40.5222301 44.6989426,44.0066717 48.9300502,44.0066717 C53.2856023,44.0066717 56.7700439,40.5222301 56.7700439,36.2911225 Z M79.4168086,49.451106 C77.4256991,49.451106 76.9279217,48.70444 76.679033,48.4555513 C76.3057,47.8333296 76.3057,47.2111079 76.3057,47.0866635 L76.3057,31.5622374 L79.4168086,31.5622374 C81.1590294,31.5622374 82.5279172,30.1933496 82.5279172,28.4511288 C82.5279172,26.708908 81.1590294,25.3400203 79.4168086,25.3400203 L76.3057,25.3400203 L76.3057,16.0066945 C76.3057,14.2644737 74.9368122,12.8955859 73.1945914,12.8955859 C71.4523706,12.8955859 70.0834828,14.2644737 70.0834828,16.0066945 L70.0834828,47.0866635 C70.0834828,47.4599966 70.0834828,49.451106 71.2034819,51.4422155 C72.1990367,53.059992 74.4390348,55.6733232 79.4168086,55.6733232 C81.1590294,55.6733232 82.5279172,54.3044354 82.5279172,52.5622146 C82.5279172,50.8199938 81.1590294,49.451106 79.4168086,49.451106 Z M110.396708,31.5622374 L91.854501,31.5622374 L91.854501,36.2911225 C91.854501,40.5222301 95.3389426,44.0066717 99.5700502,44.0066717 C101.685604,44.0066717 106.663378,43.5088944 107.2856,38.9044537 C107.534488,37.1622329 109.152265,35.9177894 110.894485,36.1666781 C112.512262,36.4155668 113.756705,38.0333433 113.507817,39.7755641 C113.010039,43.1355613 111.267819,45.8733369 108.530043,47.740002 C106.1656,49.3577785 103.054492,50.2288889 99.5700502,50.2288889 C91.854501,50.2288889 85.6322838,44.0066717 85.6322838,36.2911225 L85.6322838,26.9577967 C85.6322838,19.2422474 91.854501,12.8955859 99.5700502,12.8955859 C103.054492,12.8955859 106.290045,14.1400294 108.778932,16.3800276 C111.392263,18.6200257 113.010039,21.60669 113.507817,24.9666872 L113.507817,28.4511288 C113.507817,30.1933496 112.138929,31.5622374 110.396708,31.5622374 Z M99.5700502,19.1178031 C95.83672,19.1178031 92.7256114,21.8555787 91.9789453,25.3400203 L107.2856,25.3400203 C106.538933,21.7311343 103.303381,19.1178031 99.5700502,19.1178031 Z M143.494486,31.5622374 L124.952279,31.5622374 L124.952279,36.2911225 C124.952279,40.5222301 128.43672,44.0066717 132.667828,44.0066717 C134.783382,44.0066717 139.761156,43.5088944 140.383377,38.9044537 C140.632266,37.1622329 142.250042,35.9177894 143.992263,36.1666781 C145.61004,36.4155668 146.854483,38.0333433 146.605594,39.7755641 C146.107817,43.1355613 144.365596,45.8733369 141.627821,47.740002 C139.263378,49.3577785 136.15227,50.2288889 132.667828,50.2288889 C124.952279,50.2288889 118.730062,44.0066717 118.730062,36.2911225 L118.730062,26.9577967 C118.730062,19.2422474 124.952279,12.8955859 132.667828,12.8955859 C136.15227,12.8955859 139.387823,14.1400294 141.876709,16.3800276 C144.490041,18.6200257 146.107817,21.60669 146.605594,24.9666872 L146.605594,28.4511288 C146.605594,30.1933496 145.236707,31.5622374 143.494486,31.5622374 Z M132.667828,19.1178031 C128.934498,19.1178031 125.823389,21.8555787 125.076723,25.3400203 L140.383377,25.3400203 C139.636711,21.7311343 136.401158,19.1178031 132.667828,19.1178031 Z"/>
  </g>
</svg>
