<svg style="position: absolute; width: 0; height: 0; overflow: hidden;" version="1.1" xmlns="http://www.w3.org/2000/svg" xmlns:xlink="http://www.w3.org/1999/xlink">
<defs>
<symbol id="icon-logo" viewBox="0 0 110 32">
<title>logo</title>
<path d="M110.305 7.069l-16.426-6.636c-0.018-0.007-0.038-0.011-0.056-0.016-0.011-0.006-0.022-0.014-0.034-0.019-0.011-0.005-0.055-0.024-0.066-0.028-1.144-0.462-2.542-0.324-3.087 1.027l-8.324 20.602c-0.546 1.351 0.364 2.421 1.507 2.883 0.010 0.004 0.055 0.022 0.067 0.026s0.024 0.006 0.037 0.010c0.017 0.008 0.034 0.020 0.052 0.028l16.426 6.637c0.491 0.198 1.048-0.039 1.246-0.529l9.186-22.736c0.198-0.491-0.038-1.048-0.529-1.246zM100.232 29.446l-13.408-5.417 8.468-20.96 13.408 5.417-8.468 20.96z"></path>
<path d="M96.536 11.256l2.773 1.12c0.295 0.119 0.663-0.107 0.824-0.505s0.053-0.816-0.242-0.935l-2.773-1.12c-0.294-0.119-0.663 0.107-0.823 0.505s-0.053 0.817 0.241 0.936zM94.854 15.42l7.193 2.906c0.294 0.119 0.681-0.153 0.865-0.607s0.094-0.919-0.2-1.038l-7.193-2.906c-0.294-0.119-0.681 0.153-0.865 0.607s-0.094 0.919 0.2 1.038zM93.26 19.366l7.193 2.906c0.294 0.119 0.66-0.101 0.818-0.491s0.047-0.803-0.247-0.922l-7.193-2.906c-0.294-0.119-0.66 0.101-0.818 0.492s-0.047 0.803 0.247 0.921z"></path>
<path d="M15.736 12.122c-0.687-3.502-3.845-6.111-7.552-6.111-4.257 0-7.69 3.502-7.69 7.758v11.123c0 0.961 0.755 1.716 1.716 1.716s1.716-0.755 1.716-1.716v-11.123c0-2.403 1.922-4.325 4.257-4.325 2.403 0 4.325 1.922 4.325 4.325v11.123c0 0.961 0.755 1.716 1.716 1.716s1.716-0.755 1.716-1.716v-12.015c0-0.275-0.069-0.481-0.206-0.755zM26.996 6.011c4.257 0 7.758 3.502 7.758 7.758v5.149c0 4.257-3.502 7.69-7.758 7.69s-7.69-3.433-7.69-7.69v-5.149c0-4.257 3.433-7.758 7.69-7.758zM31.321 18.919v-5.149c0-2.403-1.922-4.325-4.326-4.325-2.334 0-4.257 1.922-4.257 4.325v5.149c0 2.334 1.922 4.257 4.257 4.257 2.403 0 4.325-1.922 4.325-4.257zM43.816 26.18c-1.099 0-1.373-0.412-1.511-0.549-0.206-0.343-0.206-0.687-0.206-0.755v-8.565h1.716c0.961 0 1.716-0.755 1.716-1.716s-0.755-1.716-1.716-1.716h-1.716v-5.149c0-0.961-0.755-1.716-1.716-1.716s-1.716 0.755-1.716 1.716v17.148c0 0.206 0 1.305 0.618 2.403 0.549 0.893 1.785 2.334 4.532 2.334 0.961 0 1.716-0.755 1.716-1.716s-0.755-1.716-1.716-1.716zM60.909 16.31h-10.23v2.609c0 2.334 1.922 4.257 4.257 4.257 1.167 0 3.914-0.275 4.257-2.815 0.137-0.961 1.030-1.648 1.991-1.511 0.893 0.137 1.579 1.030 1.442 1.991-0.275 1.854-1.236 3.364-2.746 4.394-1.305 0.893-3.021 1.373-4.943 1.373-4.257 0-7.69-3.433-7.69-7.69v-5.149c0-4.257 3.433-7.758 7.69-7.758 1.922 0 3.708 0.687 5.081 1.922 1.442 1.236 2.334 2.884 2.609 4.737v1.922c0 0.961-0.755 1.716-1.716 1.716zM54.935 9.444c-2.060 0-3.776 1.511-4.188 3.433h8.445c-0.412-1.991-2.197-3.433-4.257-3.433zM79.169 16.31h-10.23v2.609c0 2.334 1.922 4.257 4.257 4.257 1.167 0 3.914-0.275 4.257-2.815 0.137-0.961 1.030-1.648 1.991-1.511 0.893 0.137 1.579 1.030 1.442 1.991-0.275 1.854-1.236 3.364-2.746 4.394-1.305 0.893-3.021 1.373-4.943 1.373-4.257 0-7.69-3.433-7.69-7.69v-5.149c0-4.257 3.433-7.758 7.69-7.758 1.922 0 3.708 0.687 5.081 1.922 1.442 1.236 2.334 2.884 2.609 4.737v1.922c0 0.961-0.755 1.716-1.716 1.716zM73.196 9.444c-2.060 0-3.776 1.511-4.188 3.433h8.445c-0.412-1.991-2.197-3.433-4.257-3.433z"></path>
</symbol>
<symbol id="icon-trash-can" viewBox="0 0 32 32">
<title>trash-can</title>
<path d="M23 7h4v1h-2v18.993c0 1.671-1.343 3.007-3 3.007h-11c-1.666 0-3-1.346-3-3.007v-18.993h-2v-1h6v-1.995c0-1.111 0.894-2.005 1.997-2.005h5.005c1.102 0 1.997 0.898 1.997 2.005v1.995h2zM12 10v17h1v-17h-1zM16 10v17h1v-17h-1zM20 10v17h1v-17h-1zM14.003 4c-0.554 0-1.003 0.443-1.003 0.999v2.001h7v-2.001c0-0.552-0.438-0.999-1.003-0.999h-4.994z"></path>
</symbol>
<symbol id="icon-clipboard-edit" viewBox="0 0 32 32">
<title>clipboard-edit</title>
<path d="M26.443 13.15l-11.286 11.3-2.606-2.606 11.292-11.294 2.6 2.6zM27.15 12.443l-2.599-2.599 1.727-1.728c0.391-0.391 1.024-0.388 1.417 0.003l1.18 1.177c0.392 0.391 0.395 1.025 0.005 1.416l-1.729 1.731zM11.904 22.611l2.495 2.495-3.135 0.617 0.64-3.113zM22 11v-2.996c0-1.107-0.891-2.004-1.997-2.004h-1.003c0 0.002 0 0.003 0 0.005v0.99c0 1.111-0.897 2.005-2.003 2.005h-8.994c-1.109 0-2.003-0.898-2.003-2.005v-0.99c0-0.002 0-0.003 0-0.005h-1.003c-1.103 0-1.997 0.89-1.997 2.004v20.993c0 1.107 0.891 2.004 1.997 2.004h15.005c1.103 0 1.997-0.89 1.997-2.004v-9.996l7.58-7.58c0.784-0.784 0.786-2.054 0.010-2.83l-1.18-1.179c-0.779-0.779-2.037-0.783-2.83 0.010l-3.58 3.58zM10 5v-1.002c0-1.1 0.898-1.998 2.005-1.998h0.99c1.111 0 2.005 0.895 2.005 1.998v1.002h2.004c0.551 0 0.996 0.447 0.996 0.999v1.002c0 0.556-0.446 0.999-0.996 0.999h-9.009c-0.551 0-0.996-0.447-0.996-0.999v-1.002c0-0.556 0.446-0.999 0.996-0.999h2.004zM12.5 5c0.276 0 0.5-0.224 0.5-0.5s-0.224-0.5-0.5-0.5c-0.276 0-0.5 0.224-0.5 0.5s0.224 0.5 0.5 0.5v0z"></path>
</symbol>
<symbol id="icon-moon-stars" viewBox="0 0 32 32">
<title>moon-stars</title>
<path d="M18.214 11.762l-1.214 3.238-1.214-3.238-2.286-0.762 2.286-0.762 1.214-3.238 1.214 3.238 2.286 0.762-2.286 0.762zM22.214 18.238l-1.214-3.238-1.214 3.238-2.286 0.762 2.286 0.762 1.214 3.238 1.214-3.238 2.286-0.762-2.286-0.762zM14.836 22.331c-0.597 2.392-2.76 4.163-5.336 4.163-3.038 0-5.5-2.462-5.5-5.5 0-2.577 1.772-4.739 4.163-5.337 0.351-0.088 0.716-0.142 1.091-0.158-0.165 0.468-0.254 0.971-0.254 1.495 0 2.485 2.015 4.5 4.5 4.5 0.524 0 1.027-0.090 1.495-0.254-0.016 0.375-0.070 0.739-0.158 1.091v0zM26.867 12.429l1.633 0.571-1.633 0.571-0.867 2.429-0.867-2.429-1.633-0.571 1.633-0.571 0.867-2.429 0.867 2.429z"></path>
</symbol>
<symbol id="icon-sun" viewBox="0 0 32 32">
<title>sun</title>
<path d="M16.529 22c3.038 0 5.5-2.462 5.5-5.5s-2.462-5.5-5.5-5.5c-3.038 0-5.5 2.462-5.5 5.5s2.462 5.5 5.5 5.5v0zM16.529 7c-0.276 0-0.5 0.216-0.5 0.495v2.009c0 0.274 0.232 0.495 0.5 0.495 0.276 0 0.5-0.216 0.5-0.495v-2.009c0-0.274-0.232-0.495-0.5-0.495v0zM23.267 9.791c-0.195-0.195-0.506-0.201-0.704-0.003l-1.421 1.421c-0.193 0.193-0.186 0.514 0.003 0.704 0.195 0.195 0.506 0.201 0.704 0.003l1.421-1.421c0.193-0.193 0.186-0.514-0.003-0.704v0zM26.058 16.529c0-0.276-0.216-0.5-0.495-0.5h-2.009c-0.274 0-0.495 0.232-0.495 0.5 0 0.276 0.216 0.5 0.495 0.5h2.009c0.274 0 0.495-0.232 0.495-0.5v0zM23.267 23.267c0.195-0.195 0.201-0.506 0.003-0.704l-1.421-1.421c-0.193-0.193-0.514-0.186-0.704 0.003-0.195 0.195-0.201 0.506-0.003 0.704l1.421 1.421c0.193 0.193 0.514 0.186 0.704-0.003v0zM16.529 26.058c0.276 0 0.5-0.216 0.5-0.495v-2.009c0-0.274-0.232-0.495-0.5-0.495-0.276 0-0.5 0.216-0.5 0.495v2.009c0 0.274 0.232 0.495 0.5 0.495v0zM9.791 23.267c0.195 0.195 0.506 0.201 0.704 0.003l1.421-1.421c0.193-0.193 0.186-0.514-0.003-0.704-0.195-0.195-0.506-0.201-0.704-0.003l-1.421 1.421c-0.193 0.193-0.186 0.514 0.003 0.704v0zM7 16.529c0 0.276 0.216 0.5 0.495 0.5h2.009c0.274 0 0.495-0.232 0.495-0.5 0-0.276-0.216-0.5-0.495-0.5h-2.009c-0.274 0-0.495 0.232-0.495 0.5v0zM9.791 9.791c-0.195 0.195-0.201 0.506-0.003 0.704l1.421 1.421c0.193 0.193 0.514 0.186 0.704-0.003 0.195-0.195 0.201-0.506 0.003-0.704l-1.421-1.421c-0.193-0.193-0.514-0.186-0.704 0.003v0z"></path>
</symbol>
<symbol id="icon-lightning" viewBox="0 0 32 32">
<title>lightning</title>
<path d="M13.74 16.6h-3.055l3.6-9.6h7.2l-1.8 4.8h4.2l-13.2 13.2 3.055-8.4z"></path>
</symbol>
</defs>
</svg>
